<svg id="svg" version="1.1" width="1000" height="331" xmlns="http://www.w3.org/2000/svg" xmlns:xlink="http://www.w3.org/1999/xlink" style="display: block;"><g id="svgg"><path id="path0" d="M279.200 68.776 L 279.200 106.800 296.900 106.786 C 318.854 106.769,321.788 106.327,328.700 101.996 L 331.200 100.429 331.200 103.641 L 331.200 106.853 353.900 106.703 C 373.878 106.570,376.888 106.470,379.000 105.864 C 397.168 100.654,400.794 75.979,384.573 67.941 L 381.228 66.283 382.914 65.203 C 393.629 58.338,393.883 42.465,383.398 34.984 C 377.912 31.069,375.972 30.818,351.100 30.808 L 331.200 30.800 331.200 33.977 L 331.200 37.154 329.100 35.764 C 322.229 31.218,321.415 31.088,298.500 30.905 L 279.200 30.751 279.200 68.776 M307.000 43.984 C 316.448 44.491,319.678 45.820,322.790 50.480 C 325.619 54.717,327.129 63.174,326.580 71.707 C 325.338 90.986,321.779 93.937,299.700 93.988 L 294.400 94.000 294.400 68.800 L 294.400 43.600 297.500 43.620 C 299.205 43.632,303.480 43.795,307.000 43.984 M370.000 44.422 C 377.608 46.421,377.688 57.608,370.111 60.042 C 369.142 60.353,364.690 60.588,357.700 60.697 L 346.800 60.867 346.800 52.180 L 346.800 43.492 357.700 43.773 C 363.695 43.928,369.230 44.220,370.000 44.422 M368.387 74.395 C 376.364 75.313,380.281 80.283,378.379 87.076 C 376.841 92.570,374.119 93.500,358.547 93.858 L 346.800 94.128 346.800 84.064 L 346.800 74.000 355.900 74.003 C 360.905 74.005,366.524 74.181,368.387 74.395 " stroke="none" fill="#686d65" fill-rule="evenodd"></path><path id="path1" d="M80.400 67.000 L 80.400 106.400 88.600 106.400 L 96.800 106.400 96.800 67.000 L 96.800 27.600 88.600 27.600 L 80.400 27.600 80.400 67.000 M27.896 38.693 C 26.675 42.162,24.566 47.970,23.211 51.600 C 21.856 55.230,19.940 60.450,18.953 63.200 C 17.966 65.950,14.753 74.770,11.811 82.800 C 8.870 90.830,5.795 99.290,4.979 101.600 C 4.162 103.910,3.407 106.028,3.301 106.307 C 3.148 106.710,5.029 106.793,12.421 106.707 L 21.734 106.600 22.041 105.600 C 22.209 105.050,23.356 101.405,24.588 97.500 L 26.829 90.400 39.915 90.401 L 53.000 90.402 55.575 98.601 L 58.149 106.800 67.517 106.800 C 76.277 106.800,76.868 106.755,76.612 106.100 C 76.462 105.715,75.481 102.880,74.431 99.800 C 73.381 96.720,70.354 88.170,67.704 80.800 C 60.416 60.536,56.142 48.602,53.163 40.200 L 50.469 32.600 40.293 32.493 L 30.118 32.387 27.896 38.693 M45.314 65.700 L 49.101 77.200 39.803 77.200 L 30.505 77.200 34.866 63.900 C 37.264 56.585,39.340 49.794,39.480 48.808 L 39.734 47.016 40.630 50.608 C 41.123 52.584,43.231 59.375,45.314 65.700 M119.200 52.257 C 115.386 52.994,110.971 54.164,108.500 55.094 L 105.600 56.185 105.600 62.492 C 105.600 65.962,105.719 68.800,105.865 68.800 C 106.011 68.800,106.966 68.264,107.987 67.608 C 113.436 64.112,124.788 62.401,128.797 64.472 C 130.890 65.553,132.221 67.358,132.606 69.636 C 132.963 71.748,133.673 71.486,123.994 72.810 C 112.493 74.383,108.774 75.562,105.093 78.801 C 99.873 83.396,98.434 93.028,101.941 99.889 C 107.369 110.504,125.751 110.437,132.276 99.778 C 132.668 99.139,132.757 99.662,132.776 102.700 L 132.800 106.400 140.600 106.400 L 148.400 106.400 148.400 87.926 C 148.400 61.126,146.741 56.820,134.919 52.944 C 133.014 52.319,121.486 51.816,119.200 52.257 M219.200 52.732 C 215.110 54.090,211.345 56.702,209.190 59.677 L 208.000 61.320 208.000 57.260 L 208.000 53.200 199.800 53.200 L 191.600 53.200 191.600 79.800 L 191.600 106.400 199.763 106.400 L 207.925 106.400 208.085 89.900 C 208.262 71.695,208.386 70.780,211.115 67.537 C 214.436 63.589,221.257 63.979,223.667 68.253 C 225.318 71.182,225.593 74.528,225.597 91.700 L 225.600 106.400 233.765 106.400 L 241.931 106.400 242.097 90.100 C 242.281 71.982,242.365 71.332,244.976 67.913 C 247.944 64.026,254.267 63.762,257.132 67.405 C 259.173 70.000,259.319 71.361,259.503 89.500 L 259.673 106.400 267.837 106.400 L 276.000 106.400 276.000 87.064 C 276.000 65.910,275.866 64.466,273.462 59.722 C 268.238 49.413,250.382 49.149,242.388 59.263 L 240.868 61.186 239.862 59.470 C 236.216 53.248,226.848 50.193,219.200 52.732 M177.800 53.078 C 174.216 54.535,171.743 56.941,169.657 61.000 L 168.835 62.600 168.818 57.900 L 168.800 53.200 160.600 53.200 L 152.400 53.200 152.400 79.800 L 152.400 106.400 160.556 106.400 L 168.712 106.400 168.900 91.900 C 169.127 74.418,169.502 72.627,173.718 68.925 C 176.328 66.634,182.622 66.024,185.909 67.744 L 187.217 68.429 187.109 60.515 L 187.000 52.600 183.200 52.513 C 180.448 52.451,178.959 52.606,177.800 53.078 M132.800 84.127 C 132.800 91.058,128.529 96.000,122.538 96.000 C 115.499 96.000,113.105 87.438,119.194 84.038 C 120.811 83.135,127.837 81.768,131.500 81.644 L 132.800 81.600 132.800 84.127 " stroke="none" fill="#3d8f14" fill-rule="evenodd"></path></g></svg>